<?xml version="1.0" standalone="no"?>
<!DOCTYPE svg PUBLIC "-//W3C//DTD SVG 20010904//EN"
 "http://www.w3.org/TR/2001/REC-SVG-20010904/DTD/svg10.dtd">
<svg version="1.0" xmlns="http://www.w3.org/2000/svg"
 width="16.000000pt" height="16.000000pt" viewBox="0 0 16.000000 16.000000"
 preserveAspectRatio="xMidYMid meet">
<metadata>
Created by potrace 1.11, written by Peter Selinger 2001-2013
</metadata>
<g transform="translate(0.000000,16.000000) scale(0.001720,-0.001720)"
fill="#000000" stroke="none">
<path d="M981 8748 c-35 -293 -65 -545 -68 -559 -4 -22 6 -38 65 -96 120 -121
301 -230 552 -334 l115 -48 3 -3071 c2 -2918 1 -3071 -15 -3077 -67 -24 -319
-140 -396 -183 -114 -63 -255 -167 -295 -218 l-30 -38 66 -554 67 -555 1910
-3 c1283 -2 1972 0 2100 8 1082 61 1912 305 2465 723 262 199 483 470 618 757
127 270 201 559 233 912 16 172 7 643 -15 808 -54 396 -165 750 -322 1022
-180 312 -464 590 -791 775 -57 32 -103 60 -102 63 0 3 30 30 66 60 109 92
319 306 415 424 179 218 318 460 398 692 80 231 104 430 89 738 -33 714 -249
1243 -654 1607 -182 163 -451 301 -820 418 -422 135 -794 194 -1535 243 -118
7 -804 12 -2115 15 l-1940 4 -64 -533z m4004 -952 c367 -33 523 -81 722 -223
229 -163 346 -377 384 -704 36 -313 -34 -611 -200 -846 -183 -259 -453 -426
-796 -493 -163 -31 -375 -40 -962 -40 l-543 0 0 1166 0 1167 608 -6 c431 -4
659 -10 787 -21z m50 -3776 c396 -27 686 -109 897 -251 138 -94 259 -249 329
-419 112 -277 140 -716 64 -1015 -93 -366 -305 -580 -712 -715 -355 -117 -699
-149 -1605 -150 l-418 0 0 1280 0 1280 648 0 c356 0 715 -5 797 -10z"/>
</g>
</svg>
